<?xml version="1.0" encoding="UTF-8"?>
<!DOCTYPE svg PUBLIC "-//W3C//DTD SVG 1.1//EN" "http://www.w3.org/Graphics/SVG/1.1/DTD/svg11.dtd">
<!-- Creator: CorelDRAW -->
<svg xmlns="http://www.w3.org/2000/svg" xml:space="preserve" width="17.2mm" height="12.1mm" version="1.1" style="shape-rendering:geometricPrecision; text-rendering:geometricPrecision; image-rendering:optimizeQuality; fill-rule:evenodd; clip-rule:evenodd"
viewBox="0 0 1720 1210"
 xmlns:xlink="http://www.w3.org/1999/xlink"
 xmlns:xodm="http://www.corel.com/coreldraw/odm/2003">
 <defs>
  <style type="text/css">
   <![CDATA[
    .fil0 {fill:#ECEDEF}
    .fil1 {fill:#919193;fill-rule:nonzero}
   ]]>
  </style>
 </defs>
 <g id="Layer_x0020_1">
  <metadata id="CorelCorpID_0Corel-Layer"/>
  <g id="Page-1">
   <g id="credit-card-chip">
    <rect class="fil0" x="4.13" y="6.35" width="1700" height="1206.49" rx="425.03" ry="289.81"/>
    <path id="Shape" class="fil1" d="M1462.13 6.35l-1211.48 0c-138.83,0.15 -251.34,112.12 -251.5,250.3l0 705.85c0.15,138.19 112.67,250.19 251.52,250.35l1211.46 0c138.85,-0.16 251.37,-112.16 251.52,-250.35l0 -705.85c-0.16,-138.19 -112.68,-250.16 -251.52,-250.3zm-452.05 405.33c22.67,17.39 42.21,38.47 57.79,62.36 0.4,0.7 0.73,1.43 1.2,2.09 52.85,83.52 51.45,190.16 -3.58,272.27l-0.35 0.48c-15.28,22.62 -34.15,42.62 -55.87,59.22 -8.02,5.55 -12.8,14.64 -12.81,24.36l0 320.91 -280.12 0 0 -321.13c0,-10.18 -5.26,-19.65 -13.91,-25.07 -21.08,-16.27 -39.43,-35.76 -54.38,-57.74 -0.46,-0.71 -0.98,-1.36 -1.5,-2.02 -54.08,-81.66 -55.41,-187.2 -3.41,-270.19 1.17,-1.54 2.18,-3.18 3.03,-4.9 15.3,-23.03 34.31,-43.4 56.26,-60.29 8.65,-5.42 13.9,-14.89 13.91,-25.07l0 -321.13 280.1 0 0 320.96c-0.02,10.09 5.11,19.49 13.62,24.97l0.02 -0.08zm643.79 323.92l-513.54 0c35.38,-78.25 36.25,-167.66 2.37,-246.57l511.15 0 0.02 246.57zm-1594.94 -246.5l511.15 0c-33.87,78.91 -33,168.33 2.39,246.58l-513.54 0 0 -246.58zm191.65 -423.25l406 0 0 307.04c-19.96,16.64 -37.75,35.69 -52.96,56.71l-544.69 0 0 -172.95c0.11,-105.34 85.88,-190.71 191.72,-190.82l-0.07 0.02zm-191.65 896.67l0 -167.35 548.8 0c14.28,18.84 30.67,35.99 48.85,51.14l0 307.06 -405.93 0c-105.85,-0.13 -191.62,-85.52 -191.72,-190.87l0 0.02zm1403.2 190.85l-405.93 0 0 -307.03c18.19,-15.15 34.59,-32.32 48.87,-51.17l548.78 0 0 167.33c-0.1,105.35 -85.87,190.74 -191.72,190.87l0 0zm191.65 -723.75l-544.62 0c-15.21,-21.03 -33,-40.08 -52.96,-56.71l0 -307.08 405.93 0c105.78,0.15 191.5,85.46 191.65,190.74l0 173.05z"/>
   </g>
  </g>
 </g>
</svg>
