<?xml version="1.0" encoding="UTF-8"?>
<!DOCTYPE svg PUBLIC "-//W3C//DTD SVG 1.1//EN" "http://www.w3.org/Graphics/SVG/1.1/DTD/svg11.dtd">
<!-- Creator: CorelDRAW -->
<svg xmlns="http://www.w3.org/2000/svg" xml:space="preserve" width="29.8mm" height="9.5mm" version="1.1" style="shape-rendering:geometricPrecision; text-rendering:geometricPrecision; image-rendering:optimizeQuality; fill-rule:evenodd; clip-rule:evenodd"
viewBox="0 0 2980 950"
 xmlns:xlink="http://www.w3.org/1999/xlink"
 xmlns:xodm="http://www.corel.com/coreldraw/odm/2003">
 <defs>
  <style type="text/css">
   <![CDATA[
    .fil0 {fill:#A9CBD7;fill-rule:nonzero}
    .fil1 {fill:#E0EBF1;fill-rule:nonzero}
   ]]>
  </style>
 </defs>
 <g id="Layer_x0020_1">
  <metadata id="CorelCorpID_0Corel-Layer"/>
  <g id="Page-1">
   <g>
    <path id="Shape" class="fil0" d="M1224.68 18.59l-145.29 904.1 232.22 0 145.2 -904.1c0,0 -232.13,0 -232.13,0zm700.46 368.28c-81.15,-40.07 -130.9,-67.12 -130.9,-108.1 1,-37.27 42.07,-75.45 133.8,-75.45 75.45,-1.9 130.9,15.83 172.97,33.48l21.07 9.4 31.57 -189.16c-45.86,-17.73 -118.59,-37.27 -208.42,-37.27 -229.33,0 -390.81,119.24 -391.81,289.76 -1.89,125.84 115.61,195.67 203.55,237.56 89.83,42.97 120.41,70.83 120.41,109.01 -0.99,58.62 -72.64,85.67 -139.49,85.67 -92.63,0 -142.39,-13.93 -217.93,-46.59l-30.58 -13.93 -32.47 196.58c54.55,24.25 154.87,45.59 259,46.68 243.71,0 402.29,-117.42 404.29,-299.16 0.79,-99.7 -61.17,-176.06 -195.06,-238.48zm823.86 -365.48l-179.67 0c-55.36,0 -97.43,15.93 -121.4,72.74l-344.95 828.56 243.71 0 67.13 -179.38 272.66 0 34.82 180.11 214.95 0 -187.25 -902.03zm-267.6 540.88c4.71,0.46 93.55,-292.83 93.55,-292.83l70.74 292.83c0,0 -118.42,0 -164.29,0zm-1596.05 -543.68l-227.52 614.26 -24.78 -121.14c-42.07,-139.77 -173.96,-291.65 -321.15,-367.1l208.34 777.18 245.7 0 365.12 -903.1 -245.71 0 0 -0.1z"/>
    <path id="Path" class="fil1" d="M556.51 135.2c-17.73,-68.94 -74.27,-115.44 -151.07,-116.43l-360.32 0 -3.71 16.73c281.07,69.29 517,282.52 593.53,483.08l-78.43 -383.38z"/>
   </g>
  </g>
 </g>
</svg>
